<svg xmlns="http://www.w3.org/2000/svg" viewBox="0 0 522.06 299.01"><defs><style>.cls-1{fill:#fff;}.cls-2{fill:#4fc0b2;}</style></defs><title>cosplay-mark_1</title><g id="Layer_2" data-name="Layer 2"><g id="Layer_1-2" data-name="Layer 1"><rect class="cls-1" width="522.06" height="299.01"/><path class="cls-2" d="M261,74.5A72,72,0,0,0,223.63,208l40.6-58.67L256.41,144l41.16-59.49A71.68,71.68,0,0,0,261,74.5Z"/><path d="M305.42,89.84l-41.19,59.53,7.82,5.41-39.91,57.67A72,72,0,0,0,305.42,89.84Z"/><path d="M229.87,151.25h-19V171.4h14.19l11-15.87ZM256.41,144,289.7,95.84c-38.34-21.63-68.18.77-79.74,17.52l5.15,12.3-8.41,12.16,3.85,8.88h21.1l10.72,7.42-14.86,21.46-19.31-.07c1.75,3.94,11.31,16.84,22.24,22.69l33.79-48.83h0ZM243.57,137h-21v-6.61l27-2.07Z"/><path class="cls-2" d="M318.06,142.64c-1-.19-1.68-.77-2.56-2s2.07-4.48,2.57-5.54.59-1.66.16-2.22a4.68,4.68,0,0,0-2.78-1.19c0-1.09.37-1,1-1.69a4.08,4.08,0,0,0,.83-2.45c0-.66-.3-1.26-2.45-2.58s-1.39-1.92-.83-3.44c2.62-6.69-.43-11-3.9-12.25s-7.35-4.17-9.17-5.63-4.34-1-5.82,1.15l-30.84,44.58,7.82,5.41-32.83,47.44c23.79,11.95,76-4.81,70.3-35.83-1.33-7.14,6.11-13.31,7.39-14.76a13.79,13.79,0,0,0,3.33-5.72A2.53,2.53,0,0,0,318.06,142.64Zm-15.58,17.79a2.47,2.47,0,0,1-3.59,2.2l-8.47-4.33a1.43,1.43,0,0,1,.65-2.71h9.28a2.13,2.13,0,0,1,2.13,2.13Z"/></g></g></svg>