<svg xmlns="http://www.w3.org/2000/svg" viewBox="0 0 1212.93 575.11"><defs><style>.cls-1{fill:#fff;}.cls-2{fill:#4fc0b2;}.cls-3{fill:#231f20;}.cls-4{fill:#38bcb0;}.cls-5{fill:#b3b3b3;}</style></defs><title>mark-evolution_1</title><g id="Layer_2" data-name="Layer 2"><g id="Layer_1-2" data-name="Layer 1"><rect class="cls-1" width="1212.93" height="575.11"/><path class="cls-2" d="M1031.46,195.54a72,72,0,0,0-37.4,133.53l40.6-58.66-7.83-5.42L1068,205.51A71.59,71.59,0,0,0,1031.46,195.54Z"/><path d="M1075.85,210.88l-41.19,59.53,7.81,5.41-39.91,57.67a72,72,0,0,0,73.29-122.61Z"/><path d="M1000.3,272.29h-19v20.14h14.2l11-15.87Zm26.53-7.3,33.3-48.11c-38.34-21.64-68.18.77-79.75,17.52l5.16,12.3-8.42,12.16,3.85,8.88h21.11l10.72,7.41-14.86,21.47-19.31-.08c1.74,3.94,11.31,16.85,22.23,22.7l33.8-48.83h0ZM1014,258.05H993v-6.61l27-2.06Z"/><path class="cls-2" d="M1088.49,263.67c-1-.18-1.68-.76-2.57-2s2.08-4.48,2.57-5.54.6-1.66.17-2.22a4.62,4.62,0,0,0-2.78-1.19c0-1.09.36-1,1-1.69a4.17,4.17,0,0,0,.83-2.45c0-.66-.3-1.26-2.45-2.58s-1.39-1.92-.83-3.44c2.61-6.69-.43-11-3.91-12.25s-7.35-4.17-9.17-5.63-4.33-1-5.81,1.15l-30.85,44.58,7.82,5.41-32.82,47.43c23.78,12,76.05-4.8,70.29-35.83-1.32-7.14,6.11-13.3,7.39-14.76a13.6,13.6,0,0,0,3.34-5.71A2.55,2.55,0,0,0,1088.49,263.67Zm-15.58,17.8a2.47,2.47,0,0,1-3.59,2.19l-8.48-4.33a1.43,1.43,0,0,1,.65-2.7h9.29a2.13,2.13,0,0,1,2.13,2.13Z"/><path class="cls-3" d="M604.23,308.13l-9.74-9.74-24.07,19.75,2.35,3.57,2.43,3.68C579.58,324.14,593.41,319.49,604.23,308.13Z"/><path class="cls-3" d="M618.25,278,556.18,215.9c-15.08,15.82-22,34.92-20.66,56.82a89.11,89.11,0,0,0,6.6,28.44l13.21,1.58L560.18,321l34.59-28.38L610.12,308l-1.33,1.5c-11,12.4-25.08,17.79-31.13,19.65l6.09,9.23c3.71-.53,16.16-3.33,30.3-17.86,2.44-3.31,4.74-6.46,6.85-9.38A25.53,25.53,0,0,0,618.25,278Zm-55.43,23.51-2-4.18,14.28-19.12,4,7Z"/><path class="cls-3" d="M593.32,202.5l.84.86-.74-1c.42-.34.79-.66,1.11-1a53.41,53.41,0,0,1,7.05-5.72c-13.91,1.12-30.6,5.24-42.43,17.1l22.76,22.76a30.61,30.61,0,0,1,6-27.08A75,75,0,0,1,593.32,202.5Z"/><path class="cls-4" d="M652.41,312.13l-23.29-23.29a30,30,0,0,1-4.76,24.79c-2.13,2.95-4.47,6.15-7,9.52l-.19.22c-8.47,8.73-16.38,13.53-22.49,16.17C619.88,339.28,641.68,323.52,652.41,312.13Z"/><path class="cls-4" d="M640.52,211.06c-3.95-.24-7-3.74-10.15-7.45s-6.66-7.74-10.86-8c-9.07-.53-14.22,1.56-22,8.93-.36.34-.75.69-1.19,1a70,70,0,0,0-5.07,5.6,26.51,26.51,0,0,0-2,30.63l1.58,2.56h0l24.09,24.08,21.87-22.33a14.34,14.34,0,0,1-3-6.55,8.65,8.65,0,0,1,10.22-10.44,14.58,14.58,0,0,1,6.62,2.87l5.35-5.46a111.39,111.39,0,0,1-4.79-10.81c-1.46-3.67-2.39-5.58-2.9-6.57a2.61,2.61,0,0,0-2.87-1.06Z"/><path class="cls-3" d="M643.3,233.4a7.23,7.23,0,0,0-1-.08,4.53,4.53,0,0,0-3.31,1.24,4.89,4.89,0,0,0-1.07,4.35,11.5,11.5,0,0,0,9.05,8.87,4.94,4.94,0,0,0,4.33-1.16c2.18-2.23,1.21-6.88-2.13-10.15A10.76,10.76,0,0,0,643.3,233.4Z"/><path class="cls-4" d="M677.55,263.28c-.46-13.21-6.69-21.71-10.3-24.64l-1.74-1.42-.89-.71a70.32,70.32,0,0,1-6-5.65l-.11-.14-.33-.43L653.56,235c3.8,4.83,4.24,11,.77,14.59a8.68,8.68,0,0,1-6.34,2.52,11.52,11.52,0,0,1-1.64-.12,14.56,14.56,0,0,1-6.62-2.86l-21.9,22.35,37.57,37.57C674.34,290.65,677.93,274.06,677.55,263.28Z"/><path class="cls-4" d="M399.29,195.64c-13.25,12.59-20,23.63-20.43,33.61-.61,12.65,8.66,22.34,18.48,32.6,2.62,2.74,5.26,5.51,7.73,8.36l20.73-27a16.06,16.06,0,0,1-4.36-7,9.84,9.84,0,0,1,1.35-8.93c3.33-4.35,10.25-4.74,16.12-1.22L442,222c-7-6.83-5-15.95-6.58-19.46-1.83-4.2-8.8.71-13.26,2.29C418.22,206.23,409.52,194.34,399.29,195.64Z"/><path class="cls-3" d="M430.78,227.79a5.24,5.24,0,0,0-5.39,7.29,12.35,12.35,0,0,0,4.46,6.19c4.3,3.3,9.82,3.61,12.06.69s.51-8.18-3.79-11.47A12.41,12.41,0,0,0,430.78,227.79Z"/><path class="cls-4" d="M447.47,226.44c-.84-.6-1.62-1.18-2.33-1.74l-3,3.88c4.93,4.75,6.34,11.54,3,15.88a9.84,9.84,0,0,1-8,3.59,15.87,15.87,0,0,1-8.09-2.38l-21.31,27.78c5.69,7.21,9.83,15.08,9.36,24.51-.51,10.15-6.45,21.08-18.09,33.16,60.13-2,63.85-59.73,63.85-67.09S461.12,236.16,447.47,226.44Z"/><path class="cls-3" d="M352.11,315.08a66.92,66.92,0,0,0,32,15.09L384,315.31l-18.59-16.59Z"/><path class="cls-3" d="M394.37,264.69c-10-10.43-20.3-21.22-19.61-35.64.48-9.91,6.25-20.54,17.55-32.26-34,.42-97.48,45.48-50.6,123.7L365,292.8l23.15,20.67.12,26.07c16.1-14.42,24.2-30.64,24.76-41.79C413.65,284.84,404.28,275.05,394.37,264.69Zm-46.56,33.14L344,295.7l8.3-24.27,6.64,6.47Z"/><path class="cls-3" d="M181.47,195.54a72,72,0,1,0,72,72A72,72,0,0,0,181.47,195.54Zm0,133.49A61.49,61.49,0,1,1,243,267.54,61.49,61.49,0,0,1,181.47,329Z"/><path class="cls-5" d="M129.13,267.34a52.33,52.33,0,0,0,43.24,51.53c-34.38-45,44.11-53.87,23.19-101.93a52.35,52.35,0,0,0-66.43,50.4Z"/><path class="cls-3" d="M195.56,217c21,48.21-58.08,57-22.84,102.37A52.51,52.51,0,0,0,195.56,217Zm-2.82,45.68v-4.09L224,254.27l-2.85,8.36Z"/><path class="cls-3" d="M195.55,216.94c3.43,7.86,4.18,14.67,3.21,20.76,3-.45,6.07-.92,8.87-1.41,12.78-2.18,15,11.32,16.59,21.74.49,3.34,9,3.42,8.69,18.89a52.29,52.29,0,0,0-37.36-60Z"/><path class="cls-3" d="M195.55,216.94a52.34,52.34,0,0,0-66.42,50.4,53.09,53.09,0,0,0,.89,9.58c-.27-15.47,8.2-15.55,8.7-18.89,1.54-10.42,3.8-23.92,16.58-21.74,11.09,1.9,26.16,3.77,26.17,3.77s8.41-1,17.29-2.36C199.73,231.61,199,224.8,195.55,216.94Z"/><path class="cls-4" d="M181.47,195.54a113.89,113.89,0,0,1,8.4,11.09,61.49,61.49,0,0,1-8.4,122.4A34.39,34.39,0,0,1,189,339.14a72,72,0,0,0-7.57-143.6Z"/><path class="cls-4" d="M168,312.33a57.51,57.51,0,0,0,4.69,7,51.55,51.55,0,0,0,36-7Z"/><path class="cls-4" d="M234,267.54c0-1.05,0-2.1-.11-3.13,0-.31,0-.62-.07-.92-.05-.76-.12-1.5-.21-2.25l-.12-.94c-.12-.82-.25-1.63-.4-2.43,0-.2-.06-.39-.1-.59-.21-1-.44-2.06-.71-3.08l0-.09c-.25-1-.54-1.92-.84-2.86l-.19-.54c-.28-.84-.58-1.67-.91-2.48-.05-.15-.11-.29-.17-.44a50.35,50.35,0,0,0-2.72-5.69h0a52.61,52.61,0,0,0-31.86-25.16c11.3,25.94-6.37,40.47-19.63,55.41l5.41,5.42,10.23-10.23h22.93a11,11,0,0,1,11,11v17.67A52.31,52.31,0,0,0,234,267.54Zm-10-13.27-2.85,8.36H192.74v-4.09"/><path class="cls-3" d="M869.87,216.63a72,72,0,0,0-101.82,0L869.87,318.45A72,72,0,0,0,869.87,216.63Z"/><path class="cls-3" d="M768.2,224.44l93.87,93.86a66.59,66.59,0,0,1-93.87-93.86m-.15-7.81A72,72,0,1,0,869.87,318.45L768.05,216.63Z"/><path class="cls-4" d="M771.9,220.48A66.55,66.55,0,0,0,866,314.6Z"/><path class="cls-4" d="M786.13,234.71c11.78.8,17.89-8.49,23.4-13.56s8.42-5.9,12.39-6.7c4.21-.85,7.66,3.28,8.44,5.29s.51,3.63,2.18,3.07,2-.33,2.73.28.13,1.94.5,2.51,1.6-1.23,3.3.28-.19,4.71,2,4.55,6.81-6,8.4.58c1.16,4.79,1.75,12.5,7.61,15.22,7.19,3.33,11,8.66,12,11.24,2.5,6.4,5,25.74-14.66,45.45Z"/><path class="cls-3" d="M786.13,234.71c-25.82,25.82-12.18,52.23-7.2,59l8.56-.17,5.39,17.49,7.51-3.82,7.7,10.34a9.94,9.94,0,0,0,14.3,1.53c7.37-6.21,19.26-14.47,32-16.19Zm10,55.47-2.77-2.58,9.43-12.79,3.9,4.8Z"/><path class="cls-3" d="M847.22,246.37c-.35-.16-.41-.21-.56-.26s-.42-.22-.54-.09c-5.79,6-6.83,10.48-4.91,9.76,3.4-1.27,9-4.13,9.39-4.77s1.55-2.07-.2-2h-.22s-.28-.12-.3-.3A4.64,4.64,0,0,0,847.22,246.37Z"/></g></g></svg>