<?xml version="1.0" standalone="no"?>
<!DOCTYPE svg PUBLIC "-//W3C//DTD SVG 20010904//EN"
 "http://www.w3.org/TR/2001/REC-SVG-20010904/DTD/svg10.dtd">
<svg version="1.0" xmlns="http://www.w3.org/2000/svg"
 width="406.000000pt" height="406.000000pt" viewBox="0 0 406.000000 406.000000"
 preserveAspectRatio="xMidYMid meet">
<metadata>
Created by potrace 1.11, written by Peter Selinger 2001-2013
</metadata>
<g transform="translate(0.000000,406.000000) scale(0.100000,-0.100000)"
fill="#000000" stroke="none">
<path d="M1144 3993 l1 -68 250 -2 c138 -1 259 -2 270 -2 19 -1 20 -8 21 -168
1 -93 5 -535 8 -983 16 -1942 16 -1957 -9 -2102 -20 -111 -80 -223 -163 -300
-226 -212 -585 -202 -879 24 -56 43 -61 58 -16 50 16 -2 82 -6 149 -8 133 -4
205 11 304 60 68 34 85 47 146 106 63 62 115 144 145 230 33 94 34 284 2 386
-29 90 -99 197 -167 251 -51 41 -143 90 -185 98 -12 2 -25 7 -31 10 -20 12
-185 15 -244 4 -317 -58 -529 -313 -530 -639 0 -222 116 -458 314 -637 128
-115 329 -211 521 -248 22 -5 70 -13 112 -21 10 -2 48 -6 85 -9 37 -4 83 -9
102 -11 48 -5 419 -5 450 0 14 3 61 7 105 10 44 4 89 8 100 10 11 2 47 7 80
10 33 4 76 11 95 16 19 5 51 12 70 15 103 18 278 70 415 125 227 90 442 240
552 385 44 57 106 186 118 245 1 3 7 30 13 60 21 94 22 102 29 205 4 55 7 713
8 1462 l0 1363 25 1 c14 0 117 1 230 2 l205 2 0 68 1 67 -1352 0 -1352 0 2
-67z"/>
</g>
</svg>
